<svg xmlns="http://www.w3.org/2000/svg" viewBox="0 0 231 231"><path d="M33.83,33.83a115.5,115.5,0,1,1,0,163.34,115.49,115.49,0,0,1,0-163.34Z" style="fill:#DC75FF;"></path><path d="m115.5 51.75a63.75 63.75 0 0 0-10.5 126.63v14.09a115.5 115.5 0 0 0-53.729 19.027 115.5 115.5 0 0 0 128.46 0 115.5 115.5 0 0 0-53.729-19.029v-14.084a63.75 63.75 0 0 0 53.25-62.881 63.75 63.75 0 0 0-63.65-63.75 63.75 63.75 0 0 0-0.09961 0z" style="fill:#fae3b9;"></path><path d="m141.75 195a114.79 114.79 0 0 1 38 16.5 115.53 115.53 0 0 1-128.46 0 114.79 114.79 0 0 1 38-16.5l13.85 13.85v-1.2h17.86v3.1h5z" style="fill:#b40000;"></path><polygon points="115.36 207.65 123.37 224.2 148.3 196.86 143.08 189.95" style="fill:#fff;"></polygon><polygon points="115.36 207.65 107.35 224.2 82.42 196.86 87.63 189.95" style="fill:#fff;"></polygon><path d="m52.107 57.293c-1.3411 14.839-3.8707 52.771 1.3145 72.715-0.67572-43.829 12.389-70.177 62.078-70.187 49.689 0.010061 62.754 26.359 62.078 70.187 5.1852-19.944 2.6556-57.876 1.3145-72.715h-63.393-63.393z" style="fill:#ffe900;"></path><path d="m52.339 30.629c-1.3825 24.448-2.1216 45.905-1.4497 66.517 9.4643-48.304 112.77-54.916 129.22 0 0.67191-20.612-0.3798-47.256-1.4928-66.517-32.241 14.296-91.346 18.861-126.28 0z" style="fill:#ffe900;"></path><path d="m115.5 24.92c-22.25 0-44.5 4.2296-56.72 12.69-3.32 2.3-5.0602 6.4392-5.5903 10.269-0.45275 3.23-0.84043 6.7561-1.1785 10.461h126.98c-0.33704-3.7047-0.72492-7.2306-1.1775-10.461-0.53009-3.8301-2.2697-7.9992-5.5897-10.269-12.22-8.4601-34.47-12.69-56.72-12.69z" style="fill:none;"></path><path d="m76.521 39.139c21.233 3.3965 33.116-13.392 37.59-31.72 4.3614 17.158 14.175 34.968 36.577 31.584-33.921 20.594-57.646 11.594-74.167 0.1345z" style="fill:#ffe900;"></path><path d="m83.527 103.98v10h10v-10h-10zm53.945 0v10h10v-10h-10z" style="fill:none;"></path><path d="m56.621 94.906v11.688h5.3418v6.4922h5.3418v6.1055h5.3223v6.2324h26.846v-6.2324h5.3047v-6.1055h5.1445v-6.0039h11.154v6.0039h5.1446v6.1055h5.3066v6.2324h26.846v-6.2324h5.3203v-6.1055h5.3438v-6.4922h5.3418v-11.688z" style="fill:#000;"></path><path d="m67.387 100.65v5.9394h5.1992v-5.9394zm5.1992 5.9394v6.4922h5.4238v-6.4922zm5.4238 0h5.1992v-5.9394h-5.1992zm5.1992 0v6.4922h5.4258v-6.4922zm5.4258 6.4922v6.1055h5.1426v-6.1055zm-10.625 0v6.1055h5.1445v-6.1055zm48.281-12.432v5.9394h5.1992v-5.9394zm5.1992 5.9394v6.4922h5.4238v-6.4922zm5.4238 0h5.1992v-5.9394h-5.1992zm5.1992 0v6.4922h5.4258v-6.4922zm5.4258 6.4922v6.1055h5.1426v-6.1055zm-10.625 0v6.1055h5.1445v-6.1055z" style="fill:#fff;"></path><path d="m115.5 153.93a14 14 0 0 1-10.5-4.69 3.4209 3.4209 0 0 1 5-4.67l0.08 0.08 0.08 0.09a7.35 7.35 0 0 0 10.39 0.37l0.37-0.37a3.4206 3.4206 0 1 1 5.23 4.41l-0.08 0.09a14 14 0 0 1-10.53 4.69z"></path><path d="m115.27 127.32c-7.6627-0.03-15.251 1.4419-20.646 5.1465-7.62 5.33-9.9053 11.512-14.127 18.109-3.4379 5.2447-9.326 10.024-13.467 6.334 25.425 29.755 71.409 29.786 96.875 0.0664-6.8104 3.9305-11.545-2.47-13.508-6.4004-10.697-17.605-14.115-22.656-35.127-23.256zm-0.26758 8.3984c7.457 0.0802 14.986 1.2966 17.146 5.9522 2.5765 11.319-7.5878 17.454-16.681 17.515-6.09-0.05-12.2-2.3802-15.26-7.7402-6.36-11.16 3.6349-15.607 14.795-15.727z" style="fill:#4a3737;"></path></svg>