<svg xmlns="http://www.w3.org/2000/svg" viewBox="0 0 231 231"><path d="M33.83,33.83a115.5,115.5,0,1,1,0,163.34,115.49,115.49,0,0,1,0-163.34Z" style="fill:#a50000;"></path><path d="m115.5 51.75a63.75 63.75 0 0 0-10.5 126.63v14.09a115.5 115.5 0 0 0-53.729 19.027 115.5 115.5 0 0 0 128.46 0 115.5 115.5 0 0 0-53.729-19.029v-14.084a63.75 63.75 0 0 0 53.25-62.881 63.75 63.75 0 0 0-63.65-63.75 63.75 63.75 0 0 0-0.09961 0z" style="fill:#dca45f;"></path><path d="m141.75 195c13.563 3.1499 26.439 8.7409 38 16.5-38.873 26.001-89.587 26.001-128.46 0 11.561-7.7591 24.437-13.35 38-16.5 8.4869 8.8011 26.21 25.619 26.21 25.619s17.603-16.972 26.25-25.619z" style="fill:#b4e1fa;"></path><path d="m109 230.81 1.6836-14.33h9.6328l1.6836 14.33c-2.16 0.12-4.33 0.19-6.51 0.19s-4.35-0.07-6.51-0.19z" style="fill:#5b5d6e;"></path><path d="m124.17 210.6h-17.349v5.53a3.8828 3.29 0 0 0 3.8828 3.29h9.583a3.8828 3.29 0 0 0 3.8828-3.29z" style="fill:#515262;"></path><path d="m140.57 190.36-25.066 20.245c5.9686 3.2455 11.597 7.0814 16.8 11.45 1.5989 1.3338 3.9762 1.1189 5.31-0.48 0.21005-0.25749 0.38802-0.53956 0.52999-0.84l10.826-23.805-4-6c-0.90256-1.351-2.7298-1.7137-4.08-0.81-0.11612 0.0786-0.22641 0.16549-0.33 0.26z" style="fill:#a0d2f0;"></path><path d="m90.434 190.36 25.066 20.245c-5.9686 3.2455-11.597 7.0814-16.8 11.45-1.5989 1.3338-3.9762 1.1189-5.31-0.48-0.21005-0.25749-0.38802-0.53956-0.52999-0.84l-10.826-23.805 4-6c0.90256-1.351 2.7298-1.7137 4.08-0.81 0.11612 0.0786 0.22641 0.16549 0.33 0.26z" style="fill:#a0d2f0;"></path><path d="m69.834 33.826c-8.2001-0.0626-16.444 2.6753-23.152 7.7038-8.5298 6.9899-12.159 19.61-12.329 32.68-0.2041 15.476 1.6092 34.752 1.7464 51.915 0.10414 13.047 0.53485 25.984-2.9197 33.995-2.4994 5.81-9.0955 9.6006-16.196 12.311 7.9599 2.8301 25.009 2.8094 33.58 1.5393 10.8-1.59 17.238-6.5294 17.159-22.699-0.0911-15.93-1.3894-29.23-1.559-45.83-0.3208-11.983-1.569-24.291 4.9774-33.987 4.2139-6.1265 10.452-10.521 17.116-13.588 3.9292-1.8575 8.0384-3.3083 12.263-4.3297-6.8718-13.574-18.732-19.618-30.687-19.709z" style="fill:#fff510;"></path><path d="m90.8 76.246c11.918-17.125 31.996-23.218 49.743-17.488 11.81 3.9496 20.692 13.389 22.313 28.237 0.51051 6.2098 0.63413 12.445 0.37007 18.67-0.23973 11.2-0.72946 23.82-1.0995 34.08-0.82005 22.43 0.0593 35.1 24.589 36.3 8.5635 0.32122 17.137-0.22845 25.59-1.6405h-0.0198c-10.74-3.3799-17.98-15.609-19.3-26.289-1.29-10.41-0.6098-23.43-0.7898-38.091-0.1701-14.96 1.0398-29.819 0.28008-42.089-1.414-22.777-14.947-38.505-34.126-45.152-27.813-7.35-51.083 0.091-61.672 17.343-5.4698 8.9112-7.7413 20.07-5.8788 36.121z" style="fill:#fff510;"></path><path d="m97.56 107.84a10.63 10.63 0 0 1-15 0.13l-0.13-0.13" style="fill:none;stroke-linecap:round;stroke-linejoin:round;stroke-width:6.3px;stroke:#000;"></path><path d="m148.59 107.84a10.63 10.63 0 0 1-15 0.13l-0.13-0.13" style="fill:none;stroke-linecap:round;stroke-linejoin:round;stroke-width:6.3px;stroke:#000;"></path><path d="m118.05 148.38c-1.5064 0.59192-2.595 2.0264-2.6191 3.9863-0.0574 1.3977 0.53421 3.5611 3.6758 5.7949 8.0544 4.9446 21.507 3.6862 21.255-7.1658-4.664 4.8219-10.021 5.6377-14.773 0.73907-1.2328-1.1599-2.3694-2.4032-3.9294-3.1408-1.0946-0.50424-2.2257-0.61071-3.6096-0.21337z" style="fill:#50230a;"></path><path d="m133.61 154.93c3.0731-0.48816 5.5702-2.8457 5.4438-4.5059-0.47801-4.8311-5.7317-3.0917-4.3369-0.31405-2.8103-1.4445-1.8343-3.8862 0.50427-4.7324 2.0509-0.79942 5.0937 0.34314 6.2002 2.6376 2.2229 7.3422-3.4376 11.68-10.384 12.561z" style="fill:#50230a;"></path><path d="m112.81 148.38c1.5064 0.59192 2.595 2.0264 2.6191 3.9863 0.0574 1.3977-0.53421 3.5611-3.6758 5.7949-8.0544 4.9446-21.507 3.6862-21.255-7.1658 4.664 4.8219 10.021 5.6377 14.773 0.73907 1.2328-1.1599 2.3694-2.4032 3.9294-3.1408 1.0946-0.50424 2.2257-0.61071 3.6096-0.21337z" style="fill:#50230a;"></path><path d="m97.252 154.93c-3.0731-0.48816-5.5702-2.8457-5.4438-4.5059 0.47801-4.8311 5.7317-3.0917 4.3369-0.31405 2.8103-1.4445 1.8343-3.8862-0.50427-4.7324-2.0509-0.79942-5.0937 0.34314-6.2002 2.6376-2.2229 7.3422 3.4376 11.68 10.384 12.561z" style="fill:#50230a;"></path></svg>